<?xml version="1.0" encoding="iso-8859-1"?>
<!-- Generator: Adobe Illustrator 19.1.0, SVG Export Plug-In . SVG Version: 6.00 Build 0)  -->
<svg version="1.1" id="Capa_1" xmlns="http://www.w3.org/2000/svg" xmlns:xlink="http://www.w3.org/1999/xlink" x="0px" y="0px"  fill="none" stroke="#fff"  width="138px" height="130px"
	 viewBox="0 0 448.959 448.959" style="enable-background:new 0 0 448.959 448.959;" xml:space="preserve">
<g>
	<g>
		<path style="fill:#fff;" d="M224.48,448.959c-3.207,0-6.414-1.069-9.621-3.207c-6.414-5.345-162.48-123.998-162.48-274.72
			c0-4.276,0-8.552,0-12.827C58.792,49.172,146.446,0,224.479,0S390.167,49.172,396.58,158.205c0,4.276,0,8.552,0,12.827
			c0,150.722-156.067,270.444-162.48,274.72C230.893,447.89,227.686,448.959,224.48,448.959z M84.447,159.274
			c0,3.207,0,7.483,0,10.689c0,115.447,106.895,213.79,140.032,241.583c33.137-27.793,140.032-127.205,140.032-241.583
			c0-3.207,0-7.483,0-10.689C359.167,70.551,290.754,31,224.479,31S89.792,70.551,84.447,159.274z"/>
		<path style="fill:#fff;" d="M224.48,249.065c-43.827,0-78.033-35.275-78.033-79.102s35.275-79.102,78.033-79.102
			c43.827,0,79.102,35.275,79.102,79.102S268.306,249.065,224.48,249.065z M224.48,123.998c-25.655,0-45.965,21.379-45.965,47.034
			s21.379,47.034,45.965,47.034c25.655,0,47.034-21.379,47.034-47.034S250.134,123.998,224.48,123.998z"/>
	</g>
</g>
<g>
</g>
<g>
</g>
<g>
</g>
<g>
</g>
<g>
</g>
<g>
</g>
<g>
</g>
<g>
</g>
<g>
</g>
<g>
</g>
<g>
</g>
<g>
</g>
<g>
</g>
<g>
</g>
<g>
</g>
</svg>
