<svg xmlns="http://www.w3.org/2000/svg" version="1.1" id="Layer_1" x="0" y="0" width="125.9" height="125.9" viewBox="0" enable-background="new 0 0 125.9 125.9" xml:space="preserve">
  <path fill="#ffffff" d="M62.9 0C28.2 0 0 28.2 0 62.9c0 34.8 28.2 62.9 62.9 62.9 34.8 0 62.9-28.2 62.9-62.9C125.9 28.2 97.7 0 62.9 0zM57.2 71.7c0 2.3-0.4 4.6-1.6 6.6 -1.4 2.7-3.7 4.3-6.7 5.2 -2 0.6-4 0.8-6 0.7 -3.3-0.2-6.3-1-8.8-3.1 -1.5-1.2-2.7-2.7-3.6-4.4 -0.2-0.3 0-0.4 0.2-0.6 1.8-1 3.6-2.1 5.4-3.1 0.4-0.2 0.8-0.5 1.2-0.7 0.2-0.1 0.4-0.1 0.5 0.1 0.6 1 1.2 2 2.1 2.8 0.9 0.8 2 1.3 3.3 1.3 0.6 0 1.2 0 1.8-0.1 1.5-0.3 2.4-1.2 2.8-2.6 0.2-0.7 0.3-1.3 0.3-2 0-4.8 0-9.6 0-14.3 0 0 0 0 0 0 0-4.9 0-9.7 0-14.6 0-0.6 0-0.6 0.7-0.6 2.6 0 5.2 0 7.8 0 0.4 0 0.6 0.1 0.6 0.6C57.2 52.4 57.3 62 57.2 71.7zM92.3 76.8c-1 2.4-2.7 4.2-5.1 5.4 -2.3 1.2-4.7 1.8-7.3 1.9 -0.6 0-1.1 0.1-1.9 0.1 -3.1 0-6.2-0.6-9.1-2.1 -2.9-1.5-5.1-3.6-6.7-6.3 -0.2-0.3-0.1-0.5 0.2-0.7 2.2-1.2 4.3-2.4 6.4-3.6 0.3-0.2 0.5-0.2 0.7 0.2 0.9 1.4 2 2.6 3.4 3.4 1.2 0.8 2.5 1.1 4 1.3 1.6 0.2 3.1 0 4.5-0.5 2.7-1 3.5-4.1 1.6-6.2 -0.8-0.9-2-1.4-3.1-1.9 -2.5-1.1-5.1-2-7.6-3.3 -1.6-0.8-3.2-1.8-4.5-3.1 -1.8-1.8-2.8-3.9-3.1-6.3 -0.3-1.9-0.2-3.8 0.4-5.7 1.1-3.2 3.4-5.4 6.7-6.7 2.2-0.9 4.5-1.1 6.9-1 2.5 0.1 4.9 0.6 7 1.9 2 1.2 3.4 2.8 4.6 4.7 0.2 0.3 0 0.4-0.2 0.5 -1.1 0.7-2.1 1.3-3.2 2 -1 0.6-2 1.2-3 1.8 -0.4 0.3-0.5 0.2-0.8-0.2 -0.6-1-1.3-1.9-2.4-2.4 -1.8-1-3.7-1.1-5.6-0.1 -1.2 0.6-1.9 2.2-1.7 3.5 0.2 1.7 1.3 2.6 2.7 3.4 1.8 1 3.7 1.6 5.5 2.4 2.6 1.1 5.2 2.3 7.4 4.2 1.9 1.6 3.2 3.6 3.6 6.1C93.3 71.9 93.3 74.4 92.3 76.8z"/></svg>